<svg width="56" height="55" viewBox="0 0 56 55" fill="none" xmlns="http://www.w3.org/2000/svg">
<rect width="55" height="55" transform="translate(0.5)" fill="url(#paint0_radial_16_29295)"/>
<path fill-rule="evenodd" clip-rule="evenodd" d="M34.06 15.415C33.2233 16.5072 32.805 17.6888 32.805 18.96V33.5156C32.805 33.8916 32.7868 34.2765 32.7504 34.6704C32.7141 35.0643 32.6595 35.4582 32.5867 35.8521C33.5143 35.673 34.3646 35.4 35.1376 35.033C35.9106 34.6659 36.6063 34.196 37.2246 33.623C37.843 33.0501 38.3796 32.3743 38.8343 31.5955C39.289 30.8166 39.6709 29.9349 39.9801 28.9502L40.5803 27.0166V13.7769C37.07 13.7769 34.8966 14.3229 34.06 15.415ZM21.9741 15.2808H20.4191V16.7847H21.9741V15.2808ZM23.5292 17.5635H21.9741V19.0674H23.5292V17.5635ZM21.9741 19.4702H20.4191V20.9741H21.9741V19.4702ZM20.4191 21.7261H18.864V23.2568H20.4191V21.7261ZM17.309 13.75H15.7539V15.2808H17.309V13.75ZM24.2522 36.9263C23.7702 35.9595 23.5292 34.8226 23.5292 33.5156V22.478H21.9741V28.1177H20.4191V24.7607H18.864V26.2646H17.309V17.9395H15.7539V30.4004C15.7539 31.9401 16.0358 33.3724 16.5996 34.6973C17.1635 36.0221 17.9774 37.1724 19.0414 38.1482C20.1054 39.1239 21.4058 39.8848 22.9426 40.4309C24.4795 40.977 26.221 41.25 28.1671 41.25L27.4441 40.78C26.9622 40.4667 26.4302 39.9878 25.8482 39.3433C25.2661 38.6987 24.7341 37.8931 24.2522 36.9263ZM33.2142 36.3354C32.0138 36.604 30.6952 36.7114 29.2584 36.6577C28.2217 36.604 27.2986 36.4563 26.4893 36.2146C25.6799 35.9729 24.966 35.6641 24.3477 35.2881C24.766 37.0785 25.539 38.4167 26.6666 39.303C27.7943 40.1892 28.3944 40.6592 28.4672 40.7129L29.3948 41.1963C31.159 41.0889 32.7322 40.7397 34.1145 40.1489C35.4968 39.5581 36.6699 38.7838 37.6339 37.8259C38.5978 36.8681 39.3299 35.7581 39.83 34.4958C40.3302 33.2336 40.5803 31.8685 40.5803 30.4004V29.1113C40.162 30.472 39.6073 31.6402 38.9161 32.616C38.225 33.5917 37.402 34.3884 36.4471 35.0061C35.4922 35.6238 34.4146 36.0669 33.2142 36.3354ZM20.3918 16.8115H18.864V18.3154H20.3918V16.8115ZM41.42 13.75C41.5653 13.75 41.6924 13.8019 41.8014 13.9057C41.9104 14.0095 41.9648 14.134 41.9648 14.2793C41.9648 14.435 41.9104 14.5647 41.8014 14.6685C41.6924 14.7723 41.5653 14.8242 41.42 14.8242C41.2746 14.8242 41.1501 14.7723 41.0463 14.6685C40.9425 14.5647 40.8906 14.435 40.8906 14.2793C40.8906 14.134 40.9425 14.0095 41.0463 13.9057C41.1501 13.8019 41.2746 13.75 41.42 13.75ZM41.42 14.7464C41.5445 14.7464 41.6509 14.7023 41.7391 14.614C41.8273 14.5258 41.8714 14.4143 41.8714 14.2793C41.8714 14.1548 41.8273 14.0484 41.7391 13.9602C41.6509 13.872 41.5445 13.8278 41.42 13.8278C41.2954 13.8278 41.1916 13.872 41.1086 13.9602C41.0255 14.0484 40.984 14.1548 40.984 14.2793C40.984 14.4143 41.0255 14.5258 41.1086 14.614C41.1916 14.7023 41.2954 14.7464 41.42 14.7464ZM41.6301 14.2715C41.6561 14.2456 41.669 14.2067 41.669 14.1548C41.669 14.0925 41.6535 14.0458 41.6223 14.0147C41.5912 13.9835 41.5341 13.968 41.4511 13.968H41.2176V14.5907H41.311V14.326H41.42L41.5912 14.5907H41.6846L41.5134 14.326C41.5653 14.3157 41.6042 14.2975 41.6301 14.2715ZM41.42 14.2482C41.4615 14.2482 41.4978 14.243 41.5289 14.2326C41.5601 14.2222 41.5756 14.1963 41.5756 14.1548C41.5756 14.1133 41.5627 14.0847 41.5367 14.0692C41.5108 14.0536 41.477 14.0458 41.4355 14.0458H41.311V14.2482H41.42Z" fill="url(#paint1_linear_16_29295)"/>
<defs>
<radialGradient id="paint0_radial_16_29295" cx="0" cy="0" r="1" gradientUnits="userSpaceOnUse" gradientTransform="translate(27.5) rotate(90) scale(55)">
<stop stop-color="#006FFF"/>
<stop offset="1" stop-color="#003C9E"/>
</radialGradient>
<linearGradient id="paint1_linear_16_29295" x1="24.4123" y1="56.027" x2="43.2753" y2="32.8545" gradientUnits="userSpaceOnUse">
<stop stop-color="#C2C4CE"/>
<stop offset="0.39697" stop-color="#D6D9E2"/>
<stop offset="1" stop-color="white"/>
</linearGradient>
</defs>
</svg>
